<svg xmlns="http://www.w3.org/2000/svg" width="495" height="150" viewBox="0 0 495 150" font-family="-apple-system,BlinkMacSystemFont,'Segoe UI',Helvetica,Arial,sans-serif">
  <style>
    .bg{fill:#ffffff;stroke:#d0d7de}.t{fill:#1f2328}.m{fill:#59636e}
    @media (prefers-color-scheme:dark){.bg{fill:#0d1117;stroke:#30363d}.t{fill:#e6edf3}.m{fill:#9198a1}}
  </style>
  <rect class="bg" x="0.5" y="0.5" width="494" height="149" rx="8"/>
  <text class="t" x="24" y="34" font-size="16" font-weight="600">Where my code went</text>
  <text class="m" x="24" y="54" font-size="12">~600k lines added across 2,800+ commits · 2020 – today</text>
  <clipPath id="c"><rect x="24" y="70" width="447" height="10" rx="5"/></clipPath>
  <g clip-path="url(#c)">
    <rect x="24" y="70" width="317" height="10" fill="#dea584"/>
    <rect x="341" y="70" width="108" height="10" fill="#3178c6"/>
    <rect x="449" y="70" width="11" height="10" fill="#336791"/>
    <rect x="460" y="70" width="7" height="10" fill="#7b42bc"/>
    <rect x="467" y="70" width="4" height="10" fill="#8b949e"/>
  </g>
  <g font-size="12">
    <circle cx="30" cy="104" r="5" fill="#dea584"/><text class="t" x="41" y="108">Rust <tspan class="m">71%</tspan></text>
    <circle cx="150" cy="104" r="5" fill="#3178c6"/><text class="t" x="161" y="108">TypeScript <tspan class="m">24%</tspan></text>
    <circle cx="300" cy="104" r="5" fill="#336791"/><text class="t" x="311" y="108">SQL <tspan class="m">2.4%</tspan></text>
    <circle cx="30" cy="128" r="5" fill="#7b42bc"/><text class="t" x="41" y="132">Terraform <tspan class="m">1.5%</tspan></text>
    <circle cx="150" cy="128" r="5" fill="#8b949e"/><text class="t" x="161" y="132">Other <tspan class="m">1%</tspan></text>
  </g>
</svg>
